<?xml version="1.0" standalone="no"?>
<!DOCTYPE svg PUBLIC "-//W3C//DTD SVG 20010904//EN"
 "http://www.w3.org/TR/2001/REC-SVG-20010904/DTD/svg10.dtd">
<svg version="1.0" xmlns="http://www.w3.org/2000/svg"
 width="141.000000pt" height="141.000000pt" viewBox="0 0 141.000000 141.000000"
 preserveAspectRatio="xMidYMid meet">
<metadata>
Created by potrace 1.14, written by Peter Selinger 2001-2017
</metadata>
<g transform="translate(0.000000,141.000000) scale(0.100000,-0.100000)"
fill="#000000" stroke="none">
<path d="M284 1395 c-10 -7 -14 -45 -16 -130 l-3 -120 -122 -3 c-104 -2 -124
-5 -131 -20 -4 -9 -7 -191 -7 -404 l1 -387 163 -163 163 -163 395 -1 c285 0
399 3 407 11 7 8 11 49 10 116 0 57 2 111 7 119 6 12 32 15 123 16 64 0 119 4
123 8 5 4 8 186 8 404 l1 397 -162 163 c-88 89 -165 162 -170 163 -64 7 -780
2 -790 -6z m772 -342 l88 -86 0 -334 c1 -184 -2 -342 -5 -351 -6 -16 -36 -17
-351 -16 l-345 0 -86 88 -87 87 0 343 c0 188 3 346 7 349 3 4 161 7 349 7
l343 0 87 -87z"/>
<path d="M577 832 c-64 -64 -117 -122 -117 -127 0 -15 233 -245 249 -245 17 0
241 226 241 243 0 15 -232 247 -246 247 -5 0 -62 -53 -127 -118z"/>
</g>
</svg>
